<svg width="212" height="40" viewBox="0 0 212 40" fill="none" xmlns="http://www.w3.org/2000/svg">
<g clip-path="url(#clip0_21_1084)">
<path fill-rule="evenodd" clip-rule="evenodd" d="M28.4858 6.33712C26.2608 15.2389 23.8351 24.2889 21.6277 33.0353C20.1514 32.6454 18.1756 32.2215 16.5918 31.6486C18.8204 22.8344 21.0502 13.8195 23.4979 5C25.1777 5.42794 26.8488 5.86539 28.4858 6.33712Z" fill="white"/>
<path fill-rule="evenodd" clip-rule="evenodd" d="M29.3964 5.29688C30.1075 5.39684 31.2166 5.44599 31.9381 5.69301C30.5551 15.4362 29.4292 23.6175 28.1013 33.0352C27.1082 32.9711 26.4255 32.8105 25.5596 32.6886C26.7359 23.5613 28.0745 14.0763 29.3964 5.29688Z" fill="white"/>
<path fill-rule="evenodd" clip-rule="evenodd" d="M43.2096 5.49523C43.0796 14.1177 42.7596 24.1975 42.49 33.0357C40.8642 33.0633 38.9008 33.0237 37.3105 32.887C37.4449 24.8585 37.8265 17.0733 37.9821 8.96256C38.0061 7.72665 38.0065 6.25239 38.1737 5.29736C39.6067 5.45474 41.4477 5.35189 43.2096 5.49523Z" fill="white"/>
<path fill-rule="evenodd" clip-rule="evenodd" d="M44.0728 5.34668C45.6686 5.4326 47.3065 5.36609 48.9643 5.39625C49.0875 14.1266 48.9527 24.0697 48.8687 33.085C47.4165 33.0858 45.3355 33.0842 43.8328 33.085C43.7768 23.9643 43.878 14.3756 43.9284 5.44582C43.9636 5.39955 44.016 5.37064 44.0728 5.34668Z" fill="white"/>
<path fill-rule="evenodd" clip-rule="evenodd" d="M20.8122 11.1421C15.3811 18.4779 9.90685 25.7678 4.4098 33.0354C3.00314 31.9949 1.67127 30.8775 0.333008 29.7668C5.74247 22.4421 11.2295 15.1968 16.7354 7.97217C18.1632 8.95735 19.4555 10.083 20.8122 11.1421Z" fill="white"/>
<path fill-rule="evenodd" clip-rule="evenodd" d="M32.1304 9.8042C33.8282 9.94919 35.5704 10.0487 37.2139 10.2499C36.5707 18.2466 36.0776 24.8979 35.3913 33.035C33.7562 32.9937 32.0952 32.7831 30.2598 32.6389C30.8225 25.1846 31.3933 17.1714 32.1304 9.8042Z" fill="white"/>
</g>
<path d="M53.443 9.624L50.947 9.208V7.224H55.715C56.4403 7.224 57.379 7.18133 58.531 7.096C58.8083 7.07467 59.139 7.05333 59.523 7.032C59.907 7.01067 60.355 7 60.867 7C64.0883 7 66.339 7.45867 67.619 8.376C68.9203 9.272 69.571 10.616 69.571 12.408C69.571 13.9867 69.091 15.3093 68.131 16.376C67.1923 17.4213 65.955 18.0613 64.419 18.296C66.531 18.2747 68.1843 18.7547 69.379 19.736C70.595 20.7173 71.203 22.0827 71.203 23.832C71.203 26.0507 70.4243 27.832 68.867 29.176C67.3097 30.52 64.707 31.192 61.059 31.192C60.099 31.192 59.2137 31.16 58.403 31.096C58.1897 31.096 57.827 31.0747 57.315 31.032C56.803 31.0107 56.2803 31 55.747 31H50.915V29.08L53.443 28.76V9.624ZM58.083 17.592C58.3177 17.6133 58.7977 17.624 59.523 17.624H61.027C62.3283 17.624 63.299 17.2187 63.939 16.408C64.579 15.5973 64.899 14.456 64.899 12.984C64.899 11.576 64.5683 10.552 63.907 9.912C63.2457 9.272 62.147 8.952 60.611 8.952C60.2057 8.952 59.363 8.99467 58.083 9.08V17.592ZM58.083 28.888C58.5737 29.08 59.5123 29.176 60.899 29.176C62.7123 29.176 64.0243 28.7493 64.835 27.896C65.6457 27.0427 66.051 25.8053 66.051 24.184C66.051 22.6267 65.6777 21.5173 64.931 20.856C64.2057 20.1733 63.043 19.832 61.443 19.832C59.651 19.832 58.531 19.8533 58.083 19.896V28.888ZM69.5095 22.136C69.5095 20.1307 69.9042 18.424 70.6935 17.016C71.5042 15.608 72.5815 14.552 73.9255 13.848C75.2695 13.1227 76.7308 12.76 78.3095 12.76C80.9975 12.76 83.0668 13.592 84.5175 15.256C85.9895 16.8987 86.7255 19.1387 86.7255 21.976C86.7255 24.0027 86.3202 25.7307 85.5095 27.16C84.7202 28.568 83.6535 29.624 82.3095 30.328C80.9868 31.0107 79.5255 31.352 77.9255 31.352C75.2588 31.352 73.1895 30.5307 71.7175 28.888C70.2455 27.224 69.5095 24.9733 69.5095 22.136ZM78.1815 29.272C80.5922 29.272 81.7975 26.9467 81.7975 22.296C81.7975 19.864 81.5095 18.0187 80.9335 16.76C80.3575 15.48 79.4188 14.84 78.1175 14.84C75.6428 14.84 74.4055 17.1653 74.4055 21.816C74.4055 24.248 74.7042 26.104 75.3015 27.384C75.9202 28.6427 76.8802 29.272 78.1815 29.272ZM85.4745 22.136C85.4745 20.1307 85.8692 18.424 86.6585 17.016C87.4692 15.608 88.5465 14.552 89.8905 13.848C91.2345 13.1227 92.6958 12.76 94.2745 12.76C96.9625 12.76 99.0318 13.592 100.482 15.256C101.954 16.8987 102.69 19.1387 102.69 21.976C102.69 24.0027 102.285 25.7307 101.474 27.16C100.685 28.568 99.6185 29.624 98.2745 30.328C96.9518 31.0107 95.4905 31.352 93.8905 31.352C91.2238 31.352 89.1545 30.5307 87.6825 28.888C86.2105 27.224 85.4745 24.9733 85.4745 22.136ZM94.1465 29.272C96.5572 29.272 97.7625 26.9467 97.7625 22.296C97.7625 19.864 97.4745 18.0187 96.8985 16.76C96.3225 15.48 95.3838 14.84 94.0825 14.84C91.6078 14.84 90.3705 17.1653 90.3705 21.816C90.3705 24.248 90.6692 26.104 91.2665 27.384C91.8852 28.6427 92.8452 29.272 94.1465 29.272ZM102.911 7.608L100.607 7.192V5.464L106.495 4.76H106.559L107.423 5.368V20.568L107.327 22.264L113.855 15.416L111.487 15.064V13.24H119.839V15.064L117.247 15.48L113.311 19.256L118.911 28.824L120.671 29.08V31H112.223V29.08L113.855 28.792L110.207 22.04L107.327 24.952L107.391 26.584V28.792L109.407 29.08V31H101.055V29.08L102.911 28.792V7.608ZM121.084 9.624L117.628 9.208V7.224H127.612L131.42 20.984L132.316 24.728L133.084 20.984L136.86 7.224H146.748V9.208L143.26 9.624L145.82 28.728L148.412 29.08V31H138.204V29.08L141.02 28.76L139.612 14.744L139.004 8.888L137.82 13.816L133.18 30.008H129.788L125.052 14.648L123.42 8.888L122.94 14.744L121.724 28.76L124.956 29.08V31H116.06V29.08L118.748 28.76L121.084 9.624ZM145.424 26.008C145.424 24.0667 146.394 22.6053 148.336 21.624C150.298 20.6427 152.826 20.1413 155.92 20.12V19.384C155.92 18.5093 155.824 17.8267 155.632 17.336C155.461 16.8453 155.13 16.4827 154.64 16.248C154.17 15.992 153.477 15.864 152.56 15.864C151.514 15.864 150.576 16.0027 149.744 16.28C148.912 16.536 148.048 16.8773 147.152 17.304L146.16 15.256C146.48 14.9787 147.013 14.648 147.76 14.264C148.528 13.88 149.434 13.5493 150.48 13.272C151.525 12.9733 152.602 12.824 153.712 12.824C155.354 12.824 156.634 13.0373 157.552 13.464C158.49 13.8907 159.162 14.5733 159.568 15.512C159.973 16.4507 160.176 17.7093 160.176 19.288V29.08H161.904V30.872C161.477 30.9787 160.869 31.0853 160.08 31.192C159.29 31.2987 158.597 31.352 158 31.352C157.274 31.352 156.784 31.2453 156.528 31.032C156.293 30.8187 156.176 30.3813 156.176 29.72V28.856C155.6 29.496 154.853 30.072 153.936 30.584C153.018 31.096 151.984 31.352 150.832 31.352C149.85 31.352 148.944 31.1493 148.112 30.744C147.301 30.3173 146.65 29.7093 146.16 28.92C145.669 28.1093 145.424 27.1387 145.424 26.008ZM152.88 28.696C153.328 28.696 153.84 28.568 154.416 28.312C154.992 28.0347 155.493 27.704 155.92 27.32V22.072C154 22.072 152.56 22.4027 151.6 23.064C150.661 23.704 150.192 24.536 150.192 25.56C150.192 26.584 150.426 27.3627 150.896 27.896C151.386 28.4293 152.048 28.696 152.88 28.696ZM159.741 29.112L161.853 28.856V16.248L159.805 15.672V13.464L164.765 12.792H164.861L165.661 13.432V14.136L165.565 16.728H165.661C165.81 16.3013 166.162 15.7787 166.717 15.16C167.271 14.52 167.965 13.9653 168.797 13.496C169.65 13.0053 170.567 12.76 171.549 12.76C172.018 12.76 172.423 12.824 172.765 12.952V17.752C172.125 17.304 171.346 17.08 170.429 17.08C168.871 17.08 167.517 17.496 166.365 18.328V28.824L170.077 29.112V31H159.741V29.112ZM172.115 7.608L169.811 7.192V5.464L175.699 4.76H175.763L176.627 5.368V20.568L176.531 22.264L183.059 15.416L180.691 15.064V13.24H189.043V15.064L186.451 15.48L182.515 19.256L188.115 28.824L189.875 29.08V31H181.427V29.08L183.059 28.792L179.411 22.04L176.531 24.952L176.595 26.584V28.792L178.611 29.08V31H170.259V29.08L172.115 28.792V7.608ZM194.672 31.352C191.856 31.352 189.755 30.5307 188.368 28.888C187.003 27.224 186.32 24.9627 186.32 22.104C186.32 20.184 186.672 18.52 187.376 17.112C188.102 15.704 189.115 14.6267 190.416 13.88C191.718 13.1333 193.222 12.76 194.928 12.76C197.062 12.76 198.704 13.3253 199.856 14.456C201.008 15.5653 201.606 17.1547 201.648 19.224C201.648 20.632 201.563 21.6773 201.392 22.36H190.992C191.078 24.3013 191.536 25.816 192.368 26.904C193.2 27.9707 194.384 28.504 195.92 28.504C196.752 28.504 197.606 28.3653 198.48 28.088C199.376 27.8107 200.08 27.48 200.592 27.096L201.392 28.856C200.816 29.4747 199.878 30.0507 198.576 30.584C197.296 31.096 195.995 31.352 194.672 31.352ZM197.168 20.44C197.211 19.8427 197.232 19.384 197.232 19.064C197.232 16.2267 196.283 14.808 194.384 14.808C193.339 14.808 192.528 15.224 191.952 16.056C191.376 16.888 191.056 18.3493 190.992 20.44H197.168ZM205.418 31.288C204.074 31.288 203.082 30.9787 202.442 30.36C201.802 29.7413 201.482 28.76 201.482 27.416V15.672H199.402V14.008C199.573 13.944 199.882 13.8373 200.33 13.688C200.778 13.5173 201.119 13.3787 201.354 13.272C201.717 12.9947 202.026 12.5147 202.282 11.832C202.474 11.384 202.826 10.2747 203.338 8.504H205.898L206.026 13.208H210.922V15.672H206.058V24.664C206.058 25.8587 206.09 26.7013 206.154 27.192C206.218 27.6827 206.357 28.0027 206.57 28.152C206.783 28.28 207.157 28.344 207.69 28.344C208.223 28.344 208.778 28.2907 209.354 28.184C209.93 28.056 210.41 27.9067 210.794 27.736L211.402 29.528C210.805 29.976 209.93 30.3813 208.778 30.744C207.626 31.1067 206.506 31.288 205.418 31.288Z" fill="white"/>
<defs>
<clipPath id="clip0_21_1084">
<rect width="52" height="30" fill="white" transform="translate(0.333008 5)"/>
</clipPath>
</defs>
</svg>
